<svg xmlns="http://www.w3.org/2000/svg" width="500" height="500" viewBox="0 0 500 500" version="1.1">
	<path d="M 198.258 98.720 C 198.845 121.320, 199.826 125.518, 206 131.881 C 211.363 137.406, 217.734 139.967, 229.325 141.253 C 252.279 143.802, 268.203 137.935, 274.100 124.757 C 276.270 119.910, 276.482 117.921, 276.816 99.250 L 277.178 79 264.089 79 L 251 79 250.956 94.750 C 250.905 113.342, 250.118 118.336, 246.702 121.752 C 241.698 126.756, 230.120 125.587, 226.780 119.740 C 225.920 118.235, 225.336 111.262, 225 98.500 L 224.500 79.500 211.122 79.220 L 197.743 78.940 198.258 98.720 M 287.665 108.250 C 286.152 123.787, 284.710 137.474, 284.460 138.665 C 284.034 140.689, 284.508 140.880, 291.752 141.604 C 296.014 142.029, 301.975 142.405, 305 142.439 L 310.500 142.500 311.354 134.212 L 312.208 125.924 318.354 126.533 C 328.361 127.523, 334.797 129.015, 337.096 130.877 C 338.474 131.992, 339.866 135.135, 340.945 139.562 L 342.635 146.500 347.567 147.103 C 350.280 147.435, 355.818 148.030, 359.874 148.426 L 367.249 149.146 366.523 142.372 C 365.622 133.954, 364.837 131.857, 361.392 128.663 L 358.660 126.130 362.119 124.480 C 366.427 122.426, 370.031 117.287, 371.054 111.739 C 373.393 99.061, 366.066 90.847, 348.623 86.592 C 342.509 85.100, 299.476 80.005, 292.958 80.002 L 290.416 80 287.665 108.250 M 146 82.629 C 138.403 83.567, 128.560 86.189, 124.039 88.480 C 117.198 91.947, 113.808 95.113, 110.454 101.167 C 107.825 105.914, 107.502 107.434, 107.520 115 C 107.563 133.131, 116.875 143.209, 136.245 146.090 C 145.339 147.442, 159.206 146.161, 169.186 143.046 C 180.445 139.532, 190.298 130.100, 191.694 121.500 L 192.307 117.720 188.904 118.311 C 187.032 118.636, 181.225 119.209, 176 119.584 C 166.769 120.246, 166.381 120.373, 162.309 124.099 C 157.349 128.636, 154.923 129.380, 146.963 128.804 C 142.077 128.450, 140.451 127.849, 137.977 125.478 C 132.462 120.194, 131.623 111.291, 136.104 105.595 C 138.737 102.248, 140.811 101.174, 146.856 100.027 C 152.521 98.953, 157.451 99.993, 161.394 103.095 C 163.902 105.068, 164.521 105.111, 175.260 104.047 C 181.442 103.435, 187.534 102.710, 188.797 102.436 L 191.093 101.938 188.805 97.868 C 183.267 88.014, 173.285 82.945, 158.500 82.480 C 153.550 82.325, 147.925 82.392, 146 82.629 M 46.547 99.635 C 40.523 100.976, 35.455 102.211, 35.286 102.381 C 34.086 103.581, 10.354 169.567, 11.033 169.816 C 11.737 170.074, 22.784 167.965, 33.669 165.495 C 35.241 165.138, 36.311 163.557, 37.554 159.751 C 38.498 156.863, 39.352 154.395, 39.453 154.266 C 39.553 154.137, 47.899 152.254, 57.999 150.081 L 76.363 146.131 80.131 150.412 L 83.899 154.692 95.870 152.096 C 102.455 150.668, 108.195 149.145, 108.626 148.712 C 109.337 147.997, 59.195 96.868, 58.007 97.098 C 57.728 97.152, 52.571 98.293, 46.547 99.635 M 393.637 122.863 C 377.658 138.851, 368.318 148.896, 369.152 149.196 C 369.893 149.464, 375.696 150.735, 382.046 152.022 L 393.591 154.361 397.546 150.123 L 401.500 145.885 419.744 149.942 C 429.779 152.174, 438.158 154, 438.364 154 C 438.571 154, 439.315 156.137, 440.017 158.750 C 440.720 161.363, 441.566 163.811, 441.897 164.191 C 442.650 165.053, 465.750 170.272, 466.839 169.826 C 467.277 169.647, 462.003 154.367, 455.120 135.871 L 442.606 102.243 432.553 100.052 C 427.024 98.848, 421.818 97.671, 420.985 97.438 C 420.030 97.171, 409.939 106.552, 393.637 122.863 M 314.475 103.353 C 314.097 106.376, 314.060 109.287, 314.391 109.823 C 315.322 111.330, 339.668 112.472, 342.578 111.146 C 345.344 109.886, 345.964 105.045, 343.610 103.092 C 341.955 101.717, 331.124 99.444, 321.831 98.521 L 315.162 97.858 314.475 103.353 M 50.658 118.769 C 50.219 119.503, 45 135.807, 45 136.443 C 45 136.717, 60.297 133.591, 63.296 132.705 C 63.734 132.575, 61.167 129.222, 57.593 125.254 C 54.019 121.285, 50.898 118.367, 50.658 118.769 M 420.136 125.062 C 416.636 128.936, 413.936 132.249, 414.136 132.426 C 414.336 132.602, 418.693 133.657, 423.818 134.771 C 430.072 136.130, 432.997 136.418, 432.714 135.648 C 432.483 135.016, 431.065 130.787, 429.565 126.250 C 428.064 121.713, 426.760 118.004, 426.668 118.010 C 426.576 118.015, 423.636 121.189, 420.136 125.062 M 175.500 183.659 C 125.953 187.659, 88.215 199.252, 45.946 223.459 C 33.039 230.851, 10.002 245.471, 9.999 246.272 C 9.999 246.398, 20.911 246.354, 34.249 246.176 C 49.986 245.966, 60.606 246.262, 64.500 247.021 C 67.800 247.663, 75.900 250.734, 82.500 253.845 L 94.500 259.500 168.250 259.775 C 208.813 259.926, 242 259.759, 242 259.404 C 242 258.282, 219.460 232.678, 209.782 222.806 C 188.763 201.368, 173.394 195.494, 144.812 197.976 C 118.769 200.237, 90.072 208.623, 59.750 222.832 C 53.837 225.603, 49 227.678, 49 227.445 C 49 226.763, 65.760 218.538, 76.564 213.918 C 91.287 207.623, 107.319 202.455, 121.712 199.365 C 133.167 196.905, 136.584 196.613, 154.500 196.565 C 173.871 196.512, 174.708 196.594, 181.123 199.163 C 188.859 202.261, 194.597 205.730, 201.382 211.412 C 206.483 215.684, 227.959 238.993, 238.924 252.158 L 245.302 259.817 304.901 260.279 C 365.237 260.747, 373.072 261.159, 396.500 265.099 C 418.101 268.732, 444.754 276.096, 461.712 283.118 C 471.802 287.295, 493.837 298.072, 497.420 300.582 C 500.281 302.586, 498.594 302.342, 494.210 300.117 C 488.858 297.402, 455.294 286.609, 440.838 282.956 C 412.697 275.843, 385.307 271.271, 350.500 267.874 C 342.463 267.089, 296.727 266.504, 212 266.101 L 85.500 265.500 77.203 261.215 C 58.766 251.694, 45.548 249.049, 16.250 249.017 L 0 249 0 264.449 L 0 279.898 3.427 282.512 C 11.416 288.606, 20.813 304.479, 25.914 320.500 C 30.700 335.527, 30.628 337.414, 25.656 327.320 C 19.617 315.059, 13.210 305.506, 6.244 298.378 L 0.500 292.500 0.174 315.500 C -0.017 328.975, 0.343 343.055, 1.044 349.500 C 1.702 355.550, 1.946 363.200, 1.587 366.500 C 1.227 369.800, 0.687 385.438, 0.386 401.251 C -0.059 424.670, 0.086 430.074, 1.170 430.394 C 1.901 430.611, 13.750 431.755, 27.500 432.938 C 41.250 434.121, 72.975 436.870, 98 439.047 C 261.630 453.284, 305.033 456.572, 367.500 459.463 C 419.770 461.883, 477.863 463.984, 492.750 463.995 L 500 464 500 452.650 L 500 441.300 488.250 440.639 C 481.788 440.275, 456.985 438.880, 433.134 437.539 C 409.283 436.199, 389.556 434.889, 389.296 434.629 C 389.036 434.370, 389.802 432.834, 390.997 431.218 L 393.171 428.278 420.335 427.635 C 435.276 427.281, 459.268 426.708, 473.651 426.360 C 498.699 425.755, 499.825 425.808, 500.369 427.614 C 500.681 428.651, 500.740 412.227, 500.500 391.115 C 500.260 370.004, 499.855 352.521, 499.599 352.265 C 499.343 352.010, 482.791 350.291, 462.817 348.445 C 437.353 346.093, 430.385 345.222, 439.500 345.530 C 491.751 347.295, 499.669 347.306, 500.319 345.611 C 500.666 344.707, 500.848 322.263, 500.725 295.734 C 500.601 269.205, 500.371 251.355, 500.214 256.066 L 499.928 264.631 490.094 262.875 C 467.580 258.855, 400.995 251.977, 362.500 249.695 C 359.200 249.499, 377.088 249.375, 402.250 249.419 C 427.413 249.464, 448.001 249.199, 448 248.832 C 448 247.836, 412.817 228.372, 394.500 219.235 C 375.150 209.582, 351.823 200.139, 335.900 195.511 C 319.054 190.616, 286.667 186.423, 247.289 184.041 C 231.738 183.100, 185.471 182.854, 175.500 183.659 M 0.405 264.500 C 0.406 273.300, 0.559 276.766, 0.745 272.203 C 0.930 267.639, 0.929 260.439, 0.742 256.203 C 0.555 251.966, 0.404 255.700, 0.405 264.500 M 80.500 291.524 C 81.050 291.725, 123.561 299.605, 174.970 309.035 C 247.842 322.402, 268.538 325.887, 268.884 324.848 C 270.013 321.460, 276.197 310.539, 278.964 307.045 L 282.039 303.163 275.769 302.596 C 268.728 301.960, 265.172 301.741, 160 295.493 C 87.273 291.172, 78.318 290.725, 80.500 291.524 M 0.438 319.500 C 0.437 334.350, 0.576 340.564, 0.747 333.310 C 0.918 326.055, 0.918 313.905, 0.748 306.310 C 0.578 298.714, 0.438 304.650, 0.438 319.500 M 341.500 297.973 C 342.600 298.439, 357.591 304.923, 374.814 312.383 C 415.552 330.029, 420.731 331.672, 439.690 332.962 C 447.836 333.516, 460.734 333.976, 468.353 333.985 L 482.206 334 487.311 329.410 C 490.119 326.886, 494.119 323.848, 496.201 322.660 C 499.644 320.694, 499.985 320.117, 499.992 316.250 C 499.997 313.913, 499.663 311.995, 499.250 311.988 C 495.640 311.933, 432.896 306.022, 393.200 301.998 C 366.084 299.249, 342.909 297.029, 341.700 297.063 C 339.585 297.124, 339.577 297.159, 341.500 297.973 M 303.562 321.583 C 291.191 326.114, 280.344 341.021, 275.913 359.582 C 274.085 367.240, 273.858 370.479, 274.305 382.500 C 274.892 398.304, 276.365 404.881, 281.804 415.986 C 288.647 429.955, 300.711 439, 312.500 439 C 328.563 439, 343.947 422.640, 349.644 399.500 C 352.207 389.086, 351.948 368.060, 349.126 357.500 C 344.781 341.242, 335.482 327.911, 324.757 322.566 C 318.796 319.596, 310.091 319.192, 303.562 321.583 M 318.597 328.609 C 318.268 329.464, 318 338.241, 318 348.113 C 318 364.131, 318.184 366.133, 319.711 366.719 C 321.436 367.381, 344 356.304, 344 354.795 C 344 354.389, 342.931 351.682, 341.625 348.779 C 337.116 338.758, 330.688 331.857, 322.793 328.558 C 319.563 327.208, 319.132 327.214, 318.597 328.609 M 302.248 330.106 C 296.850 332.778, 289.882 340.497, 286.348 347.721 L 283.606 353.326 285.999 354.913 C 287.994 356.236, 298.910 364.028, 303.552 367.442 C 304.389 368.058, 305.381 367.929, 306.416 367.070 C 307.759 365.955, 308 362.882, 308 346.878 C 308 336.495, 307.663 328, 307.250 328.001 C 306.837 328.001, 304.586 328.949, 302.248 330.106 M 67 366.522 C 69.295 367.223, 168.611 379.015, 171.215 378.895 C 179.588 378.509, 93.603 367.019, 78.500 366.505 C 71.350 366.262, 66.175 366.269, 67 366.522 M 278.630 371.250 C 277.678 374.804, 277.900 384.470, 279.114 392.308 C 280.172 399.139, 284.355 412.581, 285.959 414.303 C 286.825 415.234, 301.561 390.807, 302.524 386.843 C 302.880 385.382, 302.714 383.334, 302.156 382.292 C 301.319 380.728, 281.575 369, 279.780 369 C 279.479 369, 278.962 370.012, 278.630 371.250 M 335.500 376.609 C 324.851 381.479, 323 382.984, 323 386.770 C 323 389.711, 337.114 415.107, 338.500 414.660 C 340.036 414.165, 344.985 401.559, 346.559 394.135 C 348.372 385.580, 348.490 371.993, 346.750 372.018 C 346.063 372.027, 341 374.093, 335.500 376.609 M 435.500 375.997 C 455.462 378.043, 499.292 379.883, 497.917 378.616 C 497.376 378.119, 461.806 376.197, 442.500 375.623 C 430.945 375.279, 429.338 375.365, 435.500 375.997 M 0.438 403.500 C 0.437 418.350, 0.576 424.564, 0.747 417.310 C 0.918 410.055, 0.918 397.905, 0.748 390.310 C 0.578 382.714, 0.438 388.650, 0.438 403.500 M 413.095 386.429 C 413.493 386.826, 423.459 387.416, 473.500 390.003 C 483.950 390.543, 494.188 391.272, 496.250 391.623 C 499.746 392.219, 500 392.094, 500 389.783 C 500 387.340, 499.844 387.294, 489.344 386.652 C 477.612 385.934, 412.410 385.743, 413.095 386.429 M 311.298 397.795 C 310.638 398.215, 306.723 404.616, 302.600 412.020 L 295.104 425.481 297.216 427.730 C 300.306 431.019, 309.695 434.285, 314.312 433.676 C 319.018 433.056, 329.015 428.277, 328.957 426.676 C 328.888 424.768, 314.593 397.607, 313.500 397.307 C 312.950 397.156, 311.959 397.376, 311.298 397.795 M 38.126 405.768 C 33.711 412.216, 29.100 416.846, 24.151 419.800 L 20.802 421.799 30.151 422.367 C 35.293 422.679, 57.950 423.182, 80.500 423.485 C 124.143 424.071, 176.958 425.402, 219.500 426.988 C 248.481 428.069, 283.229 428.949, 275.500 428.406 C 272.750 428.213, 263.525 427.556, 255 426.946 C 237.885 425.722, 202.238 420.694, 177.500 416.015 C 123.094 405.724, 100.314 402.703, 68 401.492 C 60.025 401.194, 50.924 400.744, 47.775 400.493 L 42.050 400.036 38.126 405.768" stroke="none" fill="#abbcda" fill-rule="evenodd"/>
</svg>